<mxfile host="app.diagrams.net" modified="2023-09-13T14:46:05.099Z" agent="Mozilla/5.0 (Windows NT 10.0; Win64; x64) AppleWebKit/537.36 (KHTML, like Gecko) Chrome/116.0.0.0 Safari/537.36" etag="azc6A7BmD0MQ_pEyw4xT" version="21.7.5" type="github">
  <diagram id="R2lEEEUBdFMjLlhIrx00" name="Page-1">
    <mxGraphModel dx="2657" dy="891" grid="0" gridSize="10" guides="1" tooltips="1" connect="1" arrows="1" fold="1" page="1" pageScale="1" pageWidth="850" pageHeight="1100" background="#FFFFFF" math="0" shadow="0" extFonts="Permanent Marker^https://fonts.googleapis.com/css?family=Permanent+Marker">
      <root>
        <mxCell id="0" />
        <mxCell id="1" parent="0" />
        <mxCell id="C-vyLk0tnHw3VtMMgP7b-1" value="" style="edgeStyle=entityRelationEdgeStyle;endArrow=ERzeroToMany;startArrow=ERone;endFill=1;startFill=0;" parent="1" edge="1">
          <mxGeometry width="100" height="100" relative="1" as="geometry">
            <mxPoint x="-30" y="135" as="sourcePoint" />
            <mxPoint x="50" y="165" as="targetPoint" />
            <Array as="points">
              <mxPoint x="460" y="360" />
            </Array>
          </mxGeometry>
        </mxCell>
        <mxCell id="Mso9RxP6jIEduLz9jRoG-3" value="Database" style="html=1;overflow=block;blockSpacing=1;swimlane;childLayout=stackLayout;horizontal=1;horizontalStack=0;resizeParent=1;resizeParentMax=0;resizeLast=0;collapsible=0;marginBottom=0;swimlaneFillColor=#ffffff;startSize=28;whiteSpace=wrap;fontSize=13;fontColor=#333333;fontStyle=1;align=left;spacing=0;strokeColor=#333333;strokeOpacity=100;strokeWidth=1.5;" vertex="1" parent="1">
          <mxGeometry x="747" y="637" width="225" height="213.75" as="geometry" />
        </mxCell>
        <mxCell id="Mso9RxP6jIEduLz9jRoG-4" value="" style="part=1;html=1;resizeHeight=0;strokeColor=none;fillColor=none;align=left;verticalAlign=middle;spacingLeft=4;spacingRight=4;overflow=hidden;rotatable=0;points=[[0,0.5],[1,0.5]];portConstraint=eastwest;swimlaneFillColor=#ffffff;strokeOpacity=100;whiteSpace=wrap;fontSize=13;" vertex="1" parent="Mso9RxP6jIEduLz9jRoG-3">
          <mxGeometry y="28" width="225" height="185.75" as="geometry" />
        </mxCell>
        <mxCell id="Mso9RxP6jIEduLz9jRoG-5" value="User" style="html=1;overflow=block;blockSpacing=1;swimlane;childLayout=stackLayout;horizontal=1;horizontalStack=0;resizeParent=1;resizeParentMax=0;resizeLast=0;collapsible=0;marginBottom=0;swimlaneFillColor=#ffffff;startSize=28;whiteSpace=wrap;fontSize=13;fontColor=#333333;fontStyle=1;align=left;spacing=0;strokeColor=#333333;strokeOpacity=100;strokeWidth=1.5;" vertex="1" parent="1">
          <mxGeometry x="189" y="634" width="225" height="211.75" as="geometry" />
        </mxCell>
        <mxCell id="Mso9RxP6jIEduLz9jRoG-6" value="id:int&#xa;name:str&#xa;email:str" style="part=1;html=1;resizeHeight=0;strokeColor=none;fillColor=none;align=left;verticalAlign=middle;spacingLeft=4;spacingRight=4;overflow=hidden;rotatable=0;points=[[0,0.5],[1,0.5]];portConstraint=eastwest;swimlaneFillColor=#ffffff;strokeOpacity=100;whiteSpace=wrap;fontSize=13;fontColor=#333333;" vertex="1" parent="Mso9RxP6jIEduLz9jRoG-5">
          <mxGeometry y="28" width="225" height="85" as="geometry" />
        </mxCell>
        <mxCell id="Mso9RxP6jIEduLz9jRoG-7" value="" style="line;strokeWidth=1;fillColor=none;align=left;verticalAlign=middle;spacingTop=-1;spacingLeft=3;spacingRight=3;rotatable=0;labelPosition=right;points=[];portConstraint=eastwest;" vertex="1" parent="Mso9RxP6jIEduLz9jRoG-5">
          <mxGeometry y="113" width="225" height="8" as="geometry" />
        </mxCell>
        <mxCell id="Mso9RxP6jIEduLz9jRoG-8" value="create()&#xa;read()&#xa;update()&#xa;delete()" style="part=1;html=1;resizeHeight=0;strokeColor=none;fillColor=none;align=left;verticalAlign=middle;spacingLeft=4;spacingRight=4;overflow=hidden;rotatable=0;points=[[0,0.5],[1,0.5]];portConstraint=eastwest;swimlaneFillColor=#ffffff;strokeOpacity=100;whiteSpace=wrap;fontSize=13;fontColor=#333333;" vertex="1" parent="Mso9RxP6jIEduLz9jRoG-5">
          <mxGeometry y="121" width="225" height="90.75" as="geometry" />
        </mxCell>
        <mxCell id="Mso9RxP6jIEduLz9jRoG-9" value="Account Manager" style="html=1;overflow=block;blockSpacing=1;swimlane;childLayout=stackLayout;horizontal=1;horizontalStack=0;resizeParent=1;resizeParentMax=0;resizeLast=0;collapsible=0;marginBottom=0;swimlaneFillColor=#ffffff;startSize=28;whiteSpace=wrap;fontSize=13;fontColor=#333333;fontStyle=1;align=left;spacing=0;strokeColor=#333333;strokeOpacity=100;strokeWidth=1.5;" vertex="1" parent="1">
          <mxGeometry x="700" y="270" width="225" height="213.75" as="geometry" />
        </mxCell>
        <mxCell id="Mso9RxP6jIEduLz9jRoG-10" value="" style="part=1;html=1;resizeHeight=0;strokeColor=none;fillColor=none;align=left;verticalAlign=middle;spacingLeft=4;spacingRight=4;overflow=hidden;rotatable=0;points=[[0,0.5],[1,0.5]];portConstraint=eastwest;swimlaneFillColor=#ffffff;strokeOpacity=100;whiteSpace=wrap;fontSize=13;" vertex="1" parent="Mso9RxP6jIEduLz9jRoG-9">
          <mxGeometry y="28" width="225" height="185.75" as="geometry" />
        </mxCell>
        <mxCell id="Mso9RxP6jIEduLz9jRoG-11" value="Application" style="html=1;overflow=block;blockSpacing=1;swimlane;childLayout=stackLayout;horizontal=1;horizontalStack=0;resizeParent=1;resizeParentMax=0;resizeLast=0;collapsible=0;marginBottom=0;swimlaneFillColor=#ffffff;startSize=28;whiteSpace=wrap;fontSize=13;fontColor=#333333;fontStyle=1;align=left;spacing=0;strokeColor=#333333;strokeOpacity=100;strokeWidth=1.5;" vertex="1" parent="1">
          <mxGeometry x="193" y="256" width="225" height="213.75" as="geometry" />
        </mxCell>
        <mxCell id="Mso9RxP6jIEduLz9jRoG-12" value="create (user:User)&#xa;Retrieve(id:ID or email:Email, name:Name): User&#xa;Update(id:ID or email:Email, name:Name): User&#xa;Delete(id:ID or email:Email, name:Name): User" style="part=1;html=1;resizeHeight=0;strokeColor=none;fillColor=none;align=left;verticalAlign=middle;spacingLeft=4;spacingRight=4;overflow=hidden;rotatable=0;points=[[0,0.5],[1,0.5]];portConstraint=eastwest;swimlaneFillColor=#ffffff;strokeOpacity=100;whiteSpace=wrap;fontSize=13;fontColor=#333333;" vertex="1" parent="Mso9RxP6jIEduLz9jRoG-11">
          <mxGeometry y="28" width="225" height="185.75" as="geometry" />
        </mxCell>
        <mxCell id="Mso9RxP6jIEduLz9jRoG-15" value="" style="endArrow=none;html=1;rounded=0;exitX=1;exitY=0.5;exitDx=0;exitDy=0;entryX=-0.03;entryY=0.434;entryDx=0;entryDy=0;entryPerimeter=0;" edge="1" parent="1" source="Mso9RxP6jIEduLz9jRoG-12" target="Mso9RxP6jIEduLz9jRoG-10">
          <mxGeometry width="50" height="50" relative="1" as="geometry">
            <mxPoint x="590" y="310" as="sourcePoint" />
            <mxPoint x="640" y="260" as="targetPoint" />
          </mxGeometry>
        </mxCell>
        <mxCell id="Mso9RxP6jIEduLz9jRoG-16" value="" style="endArrow=none;html=1;rounded=0;exitX=0.527;exitY=0.998;exitDx=0;exitDy=0;exitPerimeter=0;strokeColor=#FFFFFF;" edge="1" parent="1" source="Mso9RxP6jIEduLz9jRoG-12">
          <mxGeometry width="50" height="50" relative="1" as="geometry">
            <mxPoint x="301" y="482" as="sourcePoint" />
            <mxPoint x="339" y="536" as="targetPoint" />
          </mxGeometry>
        </mxCell>
        <mxCell id="Mso9RxP6jIEduLz9jRoG-18" value="" style="endArrow=none;html=1;rounded=0;exitX=1.007;exitY=1.106;exitDx=0;exitDy=0;exitPerimeter=0;entryX=0;entryY=0.5;entryDx=0;entryDy=0;" edge="1" parent="1" source="Mso9RxP6jIEduLz9jRoG-6" target="Mso9RxP6jIEduLz9jRoG-4">
          <mxGeometry width="50" height="50" relative="1" as="geometry">
            <mxPoint x="520" y="490" as="sourcePoint" />
            <mxPoint x="570" y="440" as="targetPoint" />
          </mxGeometry>
        </mxCell>
        <mxCell id="Mso9RxP6jIEduLz9jRoG-19" value="" style="endArrow=none;html=1;rounded=0;exitX=0.43;exitY=1.056;exitDx=0;exitDy=0;exitPerimeter=0;" edge="1" parent="1" source="Mso9RxP6jIEduLz9jRoG-12">
          <mxGeometry width="50" height="50" relative="1" as="geometry">
            <mxPoint x="481" y="571" as="sourcePoint" />
            <mxPoint x="290" y="629" as="targetPoint" />
          </mxGeometry>
        </mxCell>
      </root>
    </mxGraphModel>
  </diagram>
</mxfile>
